<svg width="1023" height="359" viewBox="0 0 1023 359" fill="none" xmlns="http://www.w3.org/2000/svg">
<g id="Keys">
<g id="Right Keys">
<path id="key-37" d="M746.46 255.769H694.62C693.872 255.769 693.266 256.375 693.266 257.123V304.883C693.266 305.63 693.872 306.236 694.62 306.236H746.46C747.208 306.236 747.814 305.63 747.814 304.883V257.123C747.814 256.375 747.208 255.769 746.46 255.769Z" stroke="#58A6FF" stroke-width="0.37333" stroke-miterlimit="10"/>
<path id="key-36" d="M658.48 261.035L608.407 274.443C607.684 274.637 607.256 275.379 607.449 276.101L619.818 322.234C620.012 322.956 620.754 323.384 621.477 323.191L671.55 309.782C672.272 309.589 672.701 308.847 672.507 308.125L660.138 261.992C659.944 261.27 659.202 260.842 658.48 261.035Z" stroke="#58A6FF" stroke-width="0.37333" stroke-miterlimit="10"/>
<path id="key-35" d="M575.384 288.239L530.49 314.142C529.842 314.515 529.62 315.343 529.994 315.99L553.89 357.352C554.264 357.999 555.092 358.221 555.739 357.847L600.634 331.944C601.281 331.571 601.503 330.743 601.129 330.096L577.234 288.734C576.86 288.087 576.032 287.865 575.384 288.239Z" stroke="#58A6FF" stroke-width="0.37333" stroke-miterlimit="10"/>
<path id="key-31" d="M968.305 219.34L960.006 266.375C959.876 267.111 960.368 267.813 961.104 267.942L1012.16 276.938C1012.89 277.068 1013.6 276.577 1013.73 275.841L1022.02 228.806C1022.15 228.07 1021.66 227.368 1020.93 227.238L969.874 218.242C969.137 218.113 968.435 218.604 968.305 219.34Z" stroke="#58A6FF" stroke-width="0.37333" stroke-miterlimit="10"/>
<path id="key-30" d="M891.224 237.024L882.925 284.059C882.795 284.795 883.286 285.497 884.023 285.626L935.075 294.622C935.811 294.752 936.514 294.261 936.644 293.525L944.942 246.49C945.072 245.754 944.581 245.052 943.844 244.922L892.792 235.926C892.056 235.797 891.353 236.288 891.224 237.024Z" stroke="#58A6FF" stroke-width="0.37333" stroke-miterlimit="10"/>
<path id="key-29" d="M820.928 178.554L817.594 226.198C817.542 226.943 818.105 227.59 818.851 227.642L870.564 231.256C871.31 231.308 871.957 230.746 872.009 230L875.343 182.356C875.395 181.611 874.833 180.964 874.087 180.912L822.373 177.298C821.627 177.246 820.98 177.808 820.928 178.554Z" stroke="#58A6FF" stroke-width="0.37333" stroke-miterlimit="10"/>
<path id="key-28" d="M798.883 138.17H747.044C746.296 138.17 745.69 138.776 745.69 139.524V187.284C745.69 188.031 746.296 188.637 747.044 188.637H798.883C799.631 188.637 800.238 188.031 800.238 187.284V139.524C800.238 138.776 799.631 138.17 798.883 138.17Z" stroke="#58A6FF" stroke-width="0.37333" stroke-miterlimit="10"/>
<path id="key-27" d="M726.192 172.513H674.352C673.604 172.513 672.998 173.119 672.998 173.866V221.626C672.998 222.374 673.604 222.98 674.352 222.98H726.192C726.939 222.98 727.546 222.374 727.546 221.626V173.866C727.546 173.119 726.939 172.513 726.192 172.513Z" stroke="#58A6FF" stroke-width="0.37333" stroke-miterlimit="10"/>
<path id="key-26" d="M653.499 183.21H601.66C600.912 183.21 600.306 183.816 600.306 184.563V232.324C600.306 233.071 600.912 233.677 601.66 233.677H653.499C654.247 233.677 654.853 233.071 654.853 232.324V184.563C654.853 183.816 654.247 183.21 653.499 183.21Z" stroke="#58A6FF" stroke-width="0.37333" stroke-miterlimit="10"/>
<path id="key-19" d="M903.195 169.503L894.896 216.537C894.766 217.273 895.258 217.975 895.994 218.105L947.046 227.101C947.783 227.231 948.485 226.739 948.615 226.003L956.914 178.968C957.043 178.232 956.552 177.531 955.815 177.401L904.763 168.405C904.027 168.275 903.325 168.767 903.195 169.503Z" stroke="#58A6FF" stroke-width="0.37333" stroke-miterlimit="10"/>
<path id="key-18" d="M825.642 110.182L822.308 157.826C822.256 158.571 822.818 159.218 823.564 159.27L875.277 162.884C876.023 162.936 876.67 162.374 876.723 161.628L880.056 113.984C880.109 113.239 879.546 112.592 878.8 112.54L827.087 108.926C826.341 108.874 825.694 109.436 825.642 110.182Z" stroke="#58A6FF" stroke-width="0.37333" stroke-miterlimit="10"/>
<path id="key-17" d="M798.883 69.514H747.044C746.296 69.514 745.69 70.1198 745.69 70.8671V118.628C745.69 119.375 746.296 119.981 747.044 119.981H798.883C799.631 119.981 800.238 119.375 800.238 118.628V70.8671C800.238 70.1198 799.631 69.514 798.883 69.514Z" stroke="#58A6FF" stroke-width="0.37333" stroke-miterlimit="10"/>
<path id="key-16" d="M726.192 103.856H674.352C673.604 103.856 672.998 104.462 672.998 105.21V152.97C672.998 153.717 673.604 154.323 674.352 154.323H726.192C726.939 154.323 727.546 153.717 727.546 152.97V105.21C727.546 104.462 726.939 103.856 726.192 103.856Z" stroke="#58A6FF" stroke-width="0.37333" stroke-miterlimit="10"/>
<path id="key-15" d="M653.499 114.682H601.66C600.912 114.682 600.306 115.288 600.306 116.035V163.795C600.306 164.543 600.912 165.149 601.66 165.149H653.499C654.247 165.149 654.853 164.543 654.853 163.795V116.035C654.853 115.288 654.247 114.682 653.499 114.682Z" stroke="#58A6FF" stroke-width="0.37333" stroke-miterlimit="10"/>
<path id="key-9" d="M915.015 101.838L906.716 148.872C906.586 149.608 907.078 150.31 907.814 150.44L958.866 159.436C959.603 159.566 960.305 159.074 960.435 158.338L968.734 111.303C968.864 110.567 968.372 109.866 967.636 109.736L916.584 100.74C915.847 100.61 915.145 101.102 915.015 101.838Z" stroke="#58A6FF" stroke-width="0.37333" stroke-miterlimit="10"/>
<path id="key-8" d="M830.494 41.6721L827.16 89.3162C827.108 90.0617 827.671 90.7083 828.417 90.7605L880.13 94.3743C880.876 94.4264 881.523 93.8643 881.575 93.1187L884.909 45.4747C884.961 44.7292 884.399 44.0825 883.653 44.0304L831.939 40.4166C831.193 40.3645 830.546 40.9266 830.494 41.6721Z" stroke="#58A6FF" stroke-width="0.37333" stroke-miterlimit="10"/>
<path id="key-7" d="M798.883 1H747.044C746.296 1 745.69 1.60584 745.69 2.35319V50.1135C745.69 50.8609 746.296 51.4667 747.044 51.4667H798.883C799.631 51.4667 800.238 50.8609 800.238 50.1135V2.35319C800.238 1.60584 799.631 1 798.883 1Z" stroke="#58A6FF" stroke-width="0.37333" stroke-miterlimit="10"/>
<path id="key-6" d="M726.192 35.2H674.352C673.604 35.2 672.998 35.8058 672.998 36.5532V84.3135C672.998 85.0609 673.604 85.6667 674.352 85.6667H726.192C726.939 85.6667 727.546 85.0609 727.546 84.3135V36.5532C727.546 35.8058 726.939 35.2 726.192 35.2Z" stroke="#58A6FF" stroke-width="0.37333" stroke-miterlimit="10"/>
<path id="key-5" d="M653.499 46.0255H601.66C600.912 46.0255 600.306 46.6313 600.306 47.3787V95.139C600.306 95.8864 600.912 96.4922 601.66 96.4922H653.499C654.247 96.4922 654.853 95.8864 654.853 95.139V47.3787C654.853 46.6313 654.247 46.0255 653.499 46.0255Z" stroke="#58A6FF" stroke-width="0.37333" stroke-miterlimit="10"/>
</g>
<g id="Left Keys">
<path id="key-34" d="M445.035 288.739L421.139 330.101C420.766 330.748 420.987 331.576 421.635 331.95L466.529 357.853C467.177 358.226 468.005 358.004 468.379 357.357L492.275 315.996C492.649 315.348 492.427 314.521 491.779 314.147L446.885 288.244C446.237 287.871 445.409 288.092 445.035 288.739Z" stroke="#58A6FF" stroke-width="0.37333" stroke-miterlimit="10"/>
<path id="key-33" d="M362.11 261.981L349.741 308.114C349.547 308.836 349.976 309.578 350.698 309.772L400.771 323.18C401.494 323.373 402.236 322.945 402.43 322.223L414.799 276.09C414.992 275.368 414.564 274.626 413.841 274.433L363.768 261.024C363.046 260.831 362.304 261.259 362.11 261.981Z" stroke="#58A6FF" stroke-width="0.37333" stroke-miterlimit="10"/>
<path id="key-32" d="M327.639 255.769H275.799C275.051 255.769 274.445 256.375 274.445 257.123V304.883C274.445 305.63 275.051 306.236 275.799 306.236H327.639C328.386 306.236 328.993 305.63 328.993 304.883V257.123C328.993 256.375 328.386 255.769 327.639 255.769Z" stroke="#58A6FF" stroke-width="0.37333" stroke-miterlimit="10"/>
<path id="key-25" d="M420.599 183.21H368.759C368.011 183.21 367.405 183.816 367.405 184.563V232.324C367.405 233.071 368.011 233.677 368.759 233.677H420.599C421.347 233.677 421.953 233.071 421.953 232.324V184.563C421.953 183.816 421.347 183.21 420.599 183.21Z" stroke="#58A6FF" stroke-width="0.37333" stroke-miterlimit="10"/>
<path id="key-24" d="M347.907 172.513H296.067C295.32 172.513 294.713 173.119 294.713 173.866V221.626C294.713 222.374 295.32 222.98 296.067 222.98H347.907C348.655 222.98 349.261 222.374 349.261 221.626V173.866C349.261 173.119 348.655 172.513 347.907 172.513Z" stroke="#58A6FF" stroke-width="0.37333" stroke-miterlimit="10"/>
<path id="key-23" d="M275.215 138.17H223.375C222.627 138.17 222.021 138.776 222.021 139.524V187.284C222.021 188.031 222.627 188.637 223.375 188.637H275.215C275.962 188.637 276.569 188.031 276.569 187.284V139.524C276.569 138.776 275.962 138.17 275.215 138.17Z" stroke="#58A6FF" stroke-width="0.37333" stroke-miterlimit="10"/>
<path id="key-22" d="M199.885 177.31L148.172 180.924C147.426 180.976 146.863 181.623 146.915 182.368L150.249 230.012C150.301 230.758 150.948 231.32 151.695 231.268L203.408 227.654C204.154 227.602 204.716 226.955 204.664 226.21L201.33 178.566C201.278 177.82 200.631 177.258 199.885 177.31Z" stroke="#58A6FF" stroke-width="0.37333" stroke-miterlimit="10"/>
<path id="key-21" d="M129.475 235.93L78.4231 244.926C77.6866 245.056 77.1949 245.758 77.3247 246.494L85.6236 293.529C85.7535 294.265 86.4558 294.756 87.1923 294.626L138.244 285.63C138.981 285.501 139.472 284.799 139.343 284.063L131.044 237.028C130.914 236.292 130.212 235.801 129.475 235.93Z" stroke="#58A6FF" stroke-width="0.37333" stroke-miterlimit="10"/>
<path id="key-20" d="M52.3854 221.239L1.3335 230.235C0.597029 230.364 0.105271 231.066 0.235131 231.802L8.53405 278.837C8.66391 279.573 9.36621 280.064 10.1027 279.935L61.1546 270.939C61.8911 270.809 62.3828 270.107 62.253 269.371L53.9541 222.336C53.8242 221.6 53.1219 221.109 52.3854 221.239Z" stroke="#58A6FF" stroke-width="0.37333" stroke-miterlimit="10"/>
<path id="key-14" d="M420.599 114.682H368.759C368.011 114.682 367.405 115.288 367.405 116.035V163.795C367.405 164.543 368.011 165.149 368.759 165.149H420.599C421.347 165.149 421.953 164.543 421.953 163.795V116.035C421.953 115.288 421.347 114.682 420.599 114.682Z" stroke="#58A6FF" stroke-width="0.37333" stroke-miterlimit="10"/>
<path id="key-13" d="M347.907 103.856H296.067C295.32 103.856 294.713 104.462 294.713 105.21V152.97C294.713 153.717 295.32 154.323 296.067 154.323H347.907C348.655 154.323 349.261 153.717 349.261 152.97V105.21C349.261 104.462 348.655 103.856 347.907 103.856Z" stroke="#58A6FF" stroke-width="0.37333" stroke-miterlimit="10"/>
<path id="key-12" d="M275.215 69.514H223.375C222.627 69.514 222.021 70.1198 222.021 70.8671V118.628C222.021 119.375 222.627 119.981 223.375 119.981H275.215C275.962 119.981 276.569 119.375 276.569 118.628V70.8671C276.569 70.1198 275.962 69.514 275.215 69.514Z" stroke="#58A6FF" stroke-width="0.37333" stroke-miterlimit="10"/>
<path id="key-11" d="M195.18 108.92L143.467 112.534C142.721 112.586 142.158 113.233 142.21 113.978L145.544 161.623C145.596 162.368 146.243 162.93 146.989 162.878L198.703 159.264C199.449 159.212 200.011 158.565 199.959 157.82L196.625 110.176C196.573 109.43 195.926 108.868 195.18 108.92Z" stroke="#58A6FF" stroke-width="0.37333" stroke-miterlimit="10"/>
<path id="key-10" d="M117.497 168.412L66.4456 177.408C65.7091 177.537 65.2173 178.239 65.3472 178.975L73.6461 226.01C73.776 226.746 74.4783 227.237 75.2147 227.108L126.267 218.112C127.003 217.982 127.495 217.28 127.365 216.544L119.066 169.509C118.936 168.773 118.234 168.282 117.497 168.412Z" stroke="#58A6FF" stroke-width="0.37333" stroke-miterlimit="10"/>
<path id="key-4" d="M420.599 46.0255H368.759C368.011 46.0255 367.405 46.6313 367.405 47.3787V95.139C367.405 95.8864 368.011 96.4922 368.759 96.4922H420.599C421.347 96.4922 421.953 95.8864 421.953 95.139V47.3787C421.953 46.6313 421.347 46.0255 420.599 46.0255Z" stroke="#58A6FF" stroke-width="0.37333" stroke-miterlimit="10"/>
<path id="key-3" d="M347.907 35.2H296.067C295.32 35.2 294.713 35.8058 294.713 36.5532V84.3135C294.713 85.0609 295.32 85.6667 296.067 85.6667H347.907C348.655 85.6667 349.261 85.0609 349.261 84.3135V36.5532C349.261 35.8058 348.655 35.2 347.907 35.2Z" stroke="#58A6FF" stroke-width="0.37333" stroke-miterlimit="10"/>
<path id="key-2" d="M275.215 1H223.375C222.627 1 222.021 1.60584 222.021 2.35319V50.1135C222.021 50.8609 222.627 51.4667 223.375 51.4667H275.215C275.962 51.4667 276.569 50.8609 276.569 50.1135V2.35319C276.569 1.60584 275.962 1 275.215 1Z" stroke="#58A6FF" stroke-width="0.37333" stroke-miterlimit="10"/>
<path id="key-1" d="M190.338 40.3984L138.625 44.0122C137.879 44.0643 137.316 44.7109 137.369 45.4565L140.702 93.1005C140.755 93.846 141.402 94.4081 142.148 94.356L193.861 90.7422C194.607 90.6901 195.169 90.0434 195.117 89.2979L191.783 41.6539C191.731 40.9084 191.084 40.3463 190.338 40.3984Z" stroke="#58A6FF" stroke-width="0.37333" stroke-miterlimit="10"/>
<path id="key-0" d="M105.662 100.743L54.6096 109.738C53.8732 109.868 53.3814 110.57 53.5113 111.306L61.8102 158.341C61.94 159.077 62.6423 159.568 63.3788 159.438L114.431 150.443C115.167 150.313 115.659 149.611 115.529 148.875L107.23 101.84C107.1 101.104 106.398 100.613 105.662 100.743Z" stroke="#58A6FF" stroke-width="0.37333" stroke-miterlimit="10"/>
</g>
</g>
</svg>
